# xmcd CD database file
#
# Track frame offsets:
#	150
#	23696
#	48498
#	68013
#	90587
#	114514
#	156935
#	179314
#	198504
#	226317
#	253244
#	271395
#
# Disc length: 3771 seconds
#
# Revision: 0
# Processed by: cddbd v1.4PL0 Copyright (c) Steve Scherf et al.
# Submitted via: CDex 1.50Beta7
#
DISCID=9f0eb90c
DTITLE=Pekka Airaksinen - Inner Galaxies
DYEAR=1996
DGENRE=New Age
TTITLE0=On Red Sand
TTITLE1=Silent Darkness
TTITLE2=Footsteps
TTITLE3=The Finder
TTITLE4=The Cave Of Jewels
TTITLE5=Of Five Colours
TTITLE6=The Tree With A Thousand Tops
TTITLE7=Path In Space
TTITLE8=The Ship Which Travels On The Bottom Of The Sea
TTITLE9=Sounds In The Mirror
TTITLE10=JSSX
TTITLE11=JSFF
EXTD=YEAR: 1996
EXTT0=
EXTT1=
EXTT2=
EXTT3=
EXTT4=
EXTT5=
EXTT6=
EXTT7=
EXTT8=
EXTT9=
EXTT10=
EXTT11=
PLAYORDER=
